<svg xmlns="http://www.w3.org/2000/svg" xmlns:svg="http://www.w3.org/2000/svg" id="svg5232" width="18" height="18" version="1.1"><metadata id="metadata5237"/><g id="layer1" transform="translate(0,-1034.3622)"><path id="path5240" fill="#333" fill-opacity="1" fill-rule="nonzero" stroke="none" stroke-width="1.404" d="m 14.464453,1037.8886 c -2.985223,-2.9852 -7.8983478,-3.0176 -10.9380585,0.022 -3.03978131,3.0398 -2.98522279,7.9307 0,10.916 2.9852224,2.9852 7.8540825,3.0176 10.8938635,-0.022 3.039711,-3.0398 3.029417,-7.9308 0.0442,-10.916 z m -1.723573,0.3094 -2.386486,2.3864 0.0442,2.7843 3.756504,-3.7565 c 1.856824,2.5332 1.629542,6.0602 -0.618718,8.3085 -2.248324,2.2483 -5.7745332,2.4732 -8.3085048,0.6187 l 3.7565048,-3.7565 -2.8284271,0 -2.3422912,2.3423 c -1.8545449,-2.534 -1.6296054,-6.0602 0.6187184,-8.3085 2.2518327,-2.2519 5.7744449,-2.4852 8.3085049,-0.6187 z" baseline-shift="baseline" color="#000" direction="ltr" display="inline" enable-background="accumulate" font-family="Sans" font-size="medium" font-stretch="normal" font-style="normal" font-variant="normal" font-weight="normal" letter-spacing="normal" opacity=".6" overflow="visible" text-anchor="start" text-decoration="none" visibility="visible" word-spacing="normal" writing-mode="lr-tb" style="text-indent:0;text-align:start;line-height:normal;text-transform:none;block-progression:tb;marker:none;-inkscape-font-specification:Sans"/><path id="rect5754-0" fill="#333" fill-opacity="1" stroke="#424242" stroke-linecap="round" stroke-linejoin="miter" stroke-miterlimit="4" stroke-opacity="1" stroke-width="0" d="m 8.9401808,1039.3912 c -1.1821779,-1.1822 -2.9115475,-1.1101 -3.9111844,-0.1105 -0.9996368,0.9996 -1.0716924,2.729 0.1104855,3.9112 0.9786623,0.9787 2.3295433,1.1049 3.3366601,0.5524 l 3.33666,3.867 1.414214,-1.4142 -3.7786022,-3.3809 c 0.6044912,-1.014 0.4966182,-2.4202 -0.508233,-3.425 z m -0.7954951,0.7955 c 0.4838807,0.4839 0.5716958,1.4612 -0.088388,2.1213 -0.6600841,0.6601 -1.6374396,0.5723 -2.1213203,0.088 -0.4838807,-0.4839 -0.5495987,-1.4391 0.1104854,-2.0992 0.6600842,-0.6601 1.6153426,-0.5944 2.0992233,-0.1105 z" opacity=".6"/></g></svg>