<svg xmlns="http://www.w3.org/2000/svg" xmlns:osb="http://www.openswatchbook.org/uri/2009/osb" xmlns:svg="http://www.w3.org/2000/svg" xmlns:xlink="http://www.w3.org/1999/xlink" id="svg2985" width="48" height="48" version="1.1"><defs id="defs2987"><linearGradient id="linearGradient4028"><stop id="stop4030" offset="0" stop-color="#fdff3a" stop-opacity="1"/><stop id="stop4032" offset="1" stop-color="#ffbc00" stop-opacity="1"/></linearGradient><linearGradient id="linearGradient4020"><stop id="stop4022" offset="0" stop-color="#a7b600" stop-opacity="1"/><stop id="stop4024" offset="1" stop-color="#a7b600" stop-opacity="1"/></linearGradient><linearGradient id="linearGradient3841"><stop id="stop3843" offset="0" stop-color="#009d08" stop-opacity="1"/><stop id="stop3845" offset="1" stop-color="#0dff0d" stop-opacity="1"/></linearGradient><linearGradient id="linearGradient3828"><stop id="stop3830" offset="0" stop-color="#aac0ff" stop-opacity="1"/><stop id="stop3832" offset="1" stop-color="#4c72ff" stop-opacity="1"/></linearGradient><linearGradient id="linearGradient5322"><stop id="stop5324" offset="0" stop-color="#757575" stop-opacity="1"/><stop id="stop5326" offset="1" stop-color="#757575" stop-opacity="0"/></linearGradient><linearGradient id="linearGradient5312" osb:paint="solid"><stop id="stop5314" offset="0" stop-color="#757575" stop-opacity="1"/></linearGradient><linearGradient id="linearGradient3860"><stop id="stop5354" offset="0" stop-color="#e2e2e2" stop-opacity="1"/><stop id="stop3864" offset="1" stop-color="#fff" stop-opacity="1"/></linearGradient><linearGradient id="linearGradient3785"><stop id="stop3787" offset="0" stop-color="#bcbcbc" stop-opacity="1"/><stop id="stop3789" offset="1" stop-color="#bcbcbc" stop-opacity="0"/></linearGradient><linearGradient id="linearGradient3775"><stop id="stop3777" offset="0" stop-color="#bcbcbc" stop-opacity="1"/><stop id="stop3779" offset="1" stop-color="#f2f2f2" stop-opacity="1"/></linearGradient><linearGradient id="linearGradient3767"><stop id="stop3769" offset="0" stop-color="#fff" stop-opacity="1"/><stop id="stop3771" offset="1" stop-color="#ededed" stop-opacity="1"/></linearGradient><radialGradient id="radialGradient3773" cx="24" cy="24" r="16" fx="24" fy="24" gradientTransform="matrix(2.2362076,0.0038195,-0.00556836,0.98837907,-29.750452,0.18746287)" gradientUnits="userSpaceOnUse" xlink:href="#linearGradient3767"/><linearGradient id="linearGradient3791" x1="39.103" x2="8.089" y1="44.102" y2="3.494" gradientUnits="userSpaceOnUse" xlink:href="#linearGradient3785"/><linearGradient id="linearGradient3866" x1="26.037" x2="32.426" y1="17.138" y2="11.834" gradientTransform="matrix(0.86391343,0,0,0.92316993,12.791859,3.07509)" gradientUnits="userSpaceOnUse" xlink:href="#linearGradient3860"/><linearGradient id="linearGradient3834" x1="24.75" x2="24.625" y1="32.997" y2="11.25" gradientTransform="matrix(0.99847426,0,0,1.1454249,-0.00785198,-1.3572667)" gradientUnits="userSpaceOnUse" xlink:href="#linearGradient3828"/><linearGradient id="linearGradient3847-1" x1="4.938" x2="23.844" y1="25.943" y2="25.943" gradientUnits="userSpaceOnUse" xlink:href="#linearGradient3841-7"/><linearGradient id="linearGradient3841-7"><stop id="stop3843-4" offset="0" stop-color="#009d08" stop-opacity="1"/><stop id="stop3845-0" offset="1" stop-color="#0dff0d" stop-opacity="1"/></linearGradient><linearGradient id="linearGradient3864" x1="23.812" x2="4.94" y1="26.13" y2="26.13" gradientTransform="matrix(1.1018079,0,0,0.77432871,-0.28404439,10.739774)" gradientUnits="userSpaceOnUse" xlink:href="#linearGradient3841-7"/><linearGradient id="linearGradient3864-4" x1="4.938" x2="23.844" y1="25.943" y2="25.943" gradientTransform="matrix(1.1034915,0,0,1,-0.27661445,-0.13019859)" gradientUnits="userSpaceOnUse" xlink:href="#linearGradient3841-7-8"/><linearGradient id="linearGradient3841-7-8"><stop id="stop3843-4-8" offset="0" stop-color="#009d08" stop-opacity="1"/><stop id="stop3845-0-2" offset="1" stop-color="#0dff0d" stop-opacity="1"/></linearGradient><linearGradient id="linearGradient3898" x1="23.865" x2="4.619" y1="26.819" y2="26.819" gradientTransform="matrix(0.89056043,0,0,0.39290523,15.51418,23.3033)" gradientUnits="userSpaceOnUse" xlink:href="#linearGradient3841-7-8"/><filter id="filter4016"><feGaussianBlur id="feGaussianBlur4018" stdDeviation=".136"/></filter><radialGradient id="radialGradient4026" cx="9.27" cy="14.623" r="3.207" fx="9.27" fy="14.623" gradientUnits="userSpaceOnUse" xlink:href="#linearGradient4020"/><radialGradient id="radialGradient4034" cx="9.27" cy="14.623" r="3.207" fx="9.27" fy="14.623" gradientUnits="userSpaceOnUse" xlink:href="#linearGradient4028"/><linearGradient id="linearGradient3866-4" x1="26.037" x2="32.426" y1="17.138" y2="11.834" gradientTransform="matrix(0.86391343,0,0,0.92316993,12.791859,3.07509)" gradientUnits="userSpaceOnUse" xlink:href="#linearGradient3860-2"/><linearGradient id="linearGradient3860-2"><stop id="stop5354-3" offset="0" stop-color="#e2e2e2" stop-opacity="1"/><stop id="stop3864-2" offset="1" stop-color="#fff" stop-opacity="1"/></linearGradient><filter id="filter4082" width="1.446" height="1.473" x="-.223" y="-.236"><feGaussianBlur id="feGaussianBlur4084" stdDeviation=".836"/></filter><filter id="filter3878" width="1.403" height="1.426" x="-.202" y="-.213"><feGaussianBlur id="feGaussianBlur3880" stdDeviation=".758"/></filter></defs><metadata id="metadata2990"/><g id="layer1"><path id="rect2995" fill="url(#radialGradient3773)" fill-opacity="1" fill-rule="evenodd" stroke="#cecece" stroke-linecap="butt" stroke-linejoin="miter" stroke-miterlimit="4" stroke-opacity="1" stroke-width="1.018" d="m 2.5088947,8.5093322 34.0024873,3.673e-4 8.980126,8.4380755 -0.06031,22.501534 -42.9223073,0.0418 z"/><path id="rect3057" fill="url(#linearGradient3834)" fill-opacity="1" stroke="#cecece" stroke-linecap="square" stroke-linejoin="miter" stroke-miterlimit="4" stroke-opacity="1" stroke-width="0" d="m 4.9845194,11.242407 33.3096426,0 4.632378,4.252173 0,20.947175 -37.9420206,0 z"/><path id="path3854-2" fill="#000" fill-opacity="1" stroke="#cecece" stroke-dasharray="none" stroke-linecap="butt" stroke-linejoin="round" stroke-miterlimit="4" stroke-opacity="1" stroke-width="0" d="m 35.652703,9.2619661 8.995407,8.3360459 c -3.652496,-0.84519 -4.432218,-1.227963 -8.459143,0.152916 1.069963,-3.645198 0.945846,-4.030225 -0.536264,-8.4889619 z" filter="url(#filter4082)" opacity=".4"/><path id="path3854" fill="url(#linearGradient3866)" fill-opacity="1" stroke="#cecece" stroke-linecap="butt" stroke-linejoin="round" stroke-opacity="1" stroke-width=".865" d="m 36.496187,8.4805688 8.995407,8.3360462 c -3.652496,-0.84519 -4.432218,-1.227963 -8.459143,0.152916 1.069963,-3.645198 0.945846,-4.030225 -0.536264,-8.4889622 z"/><path id="path3836-9" fill="url(#linearGradient3864)" fill-opacity="1" stroke="#2bb600" stroke-dasharray="none" stroke-linecap="square" stroke-linejoin="miter" stroke-miterlimit="4" stroke-opacity="1" stroke-width=".327" d="m 25.987188,36.29262 c -20.8132508,0.02351 0.160905,0.05897 -20.8310558,0 0,-6.053918 4.6631902,-10.961591 10.4155268,-10.961591 5.752338,0 10.415529,4.907673 10.415529,10.961591 z"/><path id="path3836-9-4" fill="url(#linearGradient3898)" fill-opacity="1" stroke="#2bb500" stroke-dasharray="none" stroke-linecap="square" stroke-linejoin="miter" stroke-miterlimit="4" stroke-opacity="1" stroke-width=".261" d="m 36.748481,36.269172 c -16.822768,0.01193 0.130055,0.02993 -16.837159,0 0,-3.071843 3.769126,-5.562065 8.418579,-5.562065 4.649453,0 8.41858,2.490222 8.41858,5.562065 z"/><g id="layer1-5" transform="matrix(0.08627063,0,0,0.10084479,-2.995806,-36.266218)"><path id="path2996" fill="#fff" fill-opacity="1" stroke="#000" stroke-dasharray="none" stroke-linecap="butt" stroke-linejoin="round" stroke-miterlimit="4" stroke-opacity="0" stroke-width=".795" d="m 375.71428,525.57648 c 0,14.79334 -12.63196,26.78571 -28.21428,26.78571 -15.58232,0 -28.21428,-11.99237 -28.21428,-26.78571 0,-14.79334 12.63196,-26.78572 28.21428,-26.78572 15.58232,0 28.21428,11.99238 28.21428,26.78572 z" transform="translate(-16.428572,-15.535714)"/><path id="path2996-1" fill="#fff" fill-opacity="1" stroke="#000" stroke-dasharray="none" stroke-linecap="butt" stroke-linejoin="round" stroke-miterlimit="4" stroke-opacity="0" stroke-width=".795" d="m 375.71428,525.57648 c 0,14.79334 -12.63196,26.78571 -28.21428,26.78571 -15.58232,0 -28.21428,-11.99237 -28.21428,-26.78571 0,-14.79334 12.63196,-26.78572 28.21428,-26.78572 15.58232,0 28.21428,11.99238 28.21428,26.78572 z" transform="matrix(0.60156311,0,0,0.63529931,72.75064,191.41024)"/><path id="path2996-1-7" fill="#fff" fill-opacity="1" stroke="#000" stroke-dasharray="none" stroke-linecap="butt" stroke-linejoin="round" stroke-miterlimit="4" stroke-opacity="0" stroke-width=".795" d="m 375.71428,525.57648 c 0,14.79334 -12.63196,26.78571 -28.21428,26.78571 -15.58232,0 -28.21428,-11.99237 -28.21428,-26.78571 0,-14.79334 12.63196,-26.78572 28.21428,-26.78572 15.58232,0 28.21428,11.99238 28.21428,26.78572 z" transform="matrix(0.60156311,0,0,0.63529931,151.84967,190.60667)"/><path id="path2996-1-4" fill="#fff" fill-opacity="1" stroke="#000" stroke-dasharray="none" stroke-linecap="butt" stroke-linejoin="round" stroke-miterlimit="4" stroke-opacity="0" stroke-width=".795" d="m 375.71428,525.57648 c 0,14.79334 -12.63196,26.78571 -28.21428,26.78571 -15.58232,0 -28.21428,-11.99237 -28.21428,-26.78571 0,-14.79334 12.63196,-26.78572 28.21428,-26.78572 15.58232,0 28.21428,11.99238 28.21428,26.78572 z" transform="matrix(0.42705666,0,0,0.42481919,235.16924,312.48006)"/><path id="path2996-1-0" fill="#fff" fill-opacity="1" stroke="#000" stroke-dasharray="none" stroke-linecap="butt" stroke-linejoin="round" stroke-miterlimit="4" stroke-opacity="0" stroke-width=".795" d="m 375.71428,525.57648 c 0,14.79334 -12.63196,26.78571 -28.21428,26.78571 -15.58232,0 -28.21428,-11.99237 -28.21428,-26.78571 0,-14.79334 12.63196,-26.78572 28.21428,-26.78572 15.58232,0 28.21428,11.99238 28.21428,26.78572 z" transform="matrix(0.46759232,0,0,0.44467421,97.052092,297.75902)"/><path id="path2996-1-9" fill="#fff" fill-opacity="1" stroke="#000" stroke-dasharray="none" stroke-linecap="butt" stroke-linejoin="round" stroke-miterlimit="4" stroke-opacity="0" stroke-width=".795" d="m 375.71428,525.57648 c 0,14.79334 -12.63196,26.78571 -28.21428,26.78571 -15.58232,0 -28.21428,-11.99237 -28.21428,-26.78571 0,-14.79334 12.63196,-26.78572 28.21428,-26.78572 15.58232,0 28.21428,11.99238 28.21428,26.78572 z" transform="matrix(0.44280458,0,0,0.43784341,86.743259,307.77186)"/><path id="path2996-1-48" fill="#fff" fill-opacity="1" stroke="#000" stroke-dasharray="none" stroke-linecap="butt" stroke-linejoin="round" stroke-miterlimit="4" stroke-opacity="0" stroke-width=".795" d="m 375.71428,525.57648 c 0,14.79334 -12.63196,26.78571 -28.21428,26.78571 -15.58232,0 -28.21428,-11.99237 -28.21428,-26.78571 0,-14.79334 12.63196,-26.78572 28.21428,-26.78572 15.58232,0 28.21428,11.99238 28.21428,26.78572 z" transform="matrix(0.81645212,0,0,0.72755314,23.446169,145.51307)"/><path id="path3830" fill="#fff" fill-opacity="1" stroke="#000" stroke-linecap="butt" stroke-linejoin="miter" stroke-opacity="0" stroke-width="1" d="m 240.53571,549.1479 143.92858,0.17857 c 5.19214,-1.08262 6.55732,-3.80537 8.57143,-6.25 l -53.21429,-31.25 -99.10714,28.03571 z"/></g><path id="path3064" fill="#fff" fill-opacity="1" fill-rule="evenodd" stroke="none" d="m 13.921165,15.539378 a 4.5078058,4.2647381 0 1 1 -9.0156112,0 4.5078058,4.2647381 0 1 1 9.0156112,0 z" filter="url(#filter3878)" opacity=".589"/><path id="path3994" fill="url(#radialGradient4034)" fill-opacity="1" stroke="url(#radialGradient4026)" stroke-dasharray="none" stroke-linecap="square" stroke-linejoin="miter" stroke-miterlimit="4" stroke-opacity="0" stroke-width=".3" d="m 12,14.622992 a 2.7296312,2.7296312 0 1 1 -5.4592626,0 2.7296312,2.7296312 0 1 1 5.4592626,0 z" filter="url(#filter4016)" transform="matrix(1.091299,0,0,1.0912991,-0.61674407,-0.45805772)"/><g id="layer1-5-1" transform="matrix(-0.05256361,0,0,0.06105344,52.1619,-10.273075)"><path id="path2996-7" fill="#fff" fill-opacity="1" stroke="#000" stroke-dasharray="none" stroke-linecap="butt" stroke-linejoin="round" stroke-miterlimit="4" stroke-opacity="0" stroke-width=".795" d="m 375.71428,525.57648 c 0,14.79334 -12.63196,26.78571 -28.21428,26.78571 -15.58232,0 -28.21428,-11.99237 -28.21428,-26.78571 0,-14.79334 12.63196,-26.78572 28.21428,-26.78572 15.58232,0 28.21428,11.99238 28.21428,26.78572 z" transform="translate(-16.428572,-15.535714)"/><path id="path2996-1-1" fill="#fff" fill-opacity="1" stroke="#000" stroke-dasharray="none" stroke-linecap="butt" stroke-linejoin="round" stroke-miterlimit="4" stroke-opacity="0" stroke-width=".795" d="m 375.71428,525.57648 c 0,14.79334 -12.63196,26.78571 -28.21428,26.78571 -15.58232,0 -28.21428,-11.99237 -28.21428,-26.78571 0,-14.79334 12.63196,-26.78572 28.21428,-26.78572 15.58232,0 28.21428,11.99238 28.21428,26.78572 z" transform="matrix(0.60156311,0,0,0.63529931,72.75064,191.41024)"/><path id="path2996-1-7-1" fill="#fff" fill-opacity="1" stroke="#000" stroke-dasharray="none" stroke-linecap="butt" stroke-linejoin="round" stroke-miterlimit="4" stroke-opacity="0" stroke-width=".795" d="m 375.71428,525.57648 c 0,14.79334 -12.63196,26.78571 -28.21428,26.78571 -15.58232,0 -28.21428,-11.99237 -28.21428,-26.78571 0,-14.79334 12.63196,-26.78572 28.21428,-26.78572 15.58232,0 28.21428,11.99238 28.21428,26.78572 z" transform="matrix(0.60156311,0,0,0.63529931,151.84967,190.60667)"/><path id="path2996-1-4-5" fill="#fff" fill-opacity="1" stroke="#000" stroke-dasharray="none" stroke-linecap="butt" stroke-linejoin="round" stroke-miterlimit="4" stroke-opacity="0" stroke-width=".795" d="m 375.71428,525.57648 c 0,14.79334 -12.63196,26.78571 -28.21428,26.78571 -15.58232,0 -28.21428,-11.99237 -28.21428,-26.78571 0,-14.79334 12.63196,-26.78572 28.21428,-26.78572 15.58232,0 28.21428,11.99238 28.21428,26.78572 z" transform="matrix(0.42705666,0,0,0.42481919,235.16924,312.48006)"/><path id="path2996-1-0-2" fill="#fff" fill-opacity="1" stroke="#000" stroke-dasharray="none" stroke-linecap="butt" stroke-linejoin="round" stroke-miterlimit="4" stroke-opacity="0" stroke-width=".795" d="m 375.71428,525.57648 c 0,14.79334 -12.63196,26.78571 -28.21428,26.78571 -15.58232,0 -28.21428,-11.99237 -28.21428,-26.78571 0,-14.79334 12.63196,-26.78572 28.21428,-26.78572 15.58232,0 28.21428,11.99238 28.21428,26.78572 z" transform="matrix(0.46759232,0,0,0.44467421,97.052092,297.75902)"/><path id="path2996-1-9-7" fill="#fff" fill-opacity="1" stroke="#000" stroke-dasharray="none" stroke-linecap="butt" stroke-linejoin="round" stroke-miterlimit="4" stroke-opacity="0" stroke-width=".795" d="m 375.71428,525.57648 c 0,14.79334 -12.63196,26.78571 -28.21428,26.78571 -15.58232,0 -28.21428,-11.99237 -28.21428,-26.78571 0,-14.79334 12.63196,-26.78572 28.21428,-26.78572 15.58232,0 28.21428,11.99238 28.21428,26.78572 z" transform="matrix(0.44280458,0,0,0.43784341,86.743259,307.77186)"/><path id="path2996-1-48-6" fill="#fff" fill-opacity="1" stroke="#000" stroke-dasharray="none" stroke-linecap="butt" stroke-linejoin="round" stroke-miterlimit="4" stroke-opacity="0" stroke-width=".795" d="m 375.71428,525.57648 c 0,14.79334 -12.63196,26.78571 -28.21428,26.78571 -15.58232,0 -28.21428,-11.99237 -28.21428,-26.78571 0,-14.79334 12.63196,-26.78572 28.21428,-26.78572 15.58232,0 28.21428,11.99238 28.21428,26.78572 z" transform="matrix(0.81645212,0,0,0.72755314,23.446169,145.51307)"/><path id="path3830-1" fill="#fff" fill-opacity="1" stroke="#000" stroke-linecap="butt" stroke-linejoin="miter" stroke-opacity="0" stroke-width="1" d="m 240.53571,549.1479 143.92858,0.17857 c 5.19214,-1.08262 6.55732,-3.80537 8.57143,-6.25 l -53.21429,-31.25 -99.10714,28.03571 z"/></g></g></svg>