<svg xmlns="http://www.w3.org/2000/svg" xmlns:osb="http://www.openswatchbook.org/uri/2009/osb" xmlns:svg="http://www.w3.org/2000/svg" xmlns:xlink="http://www.w3.org/1999/xlink" id="svg2985" width="36" height="36" version="1.1"><defs id="defs2987"><linearGradient id="linearGradient5447"><stop id="stop5449" offset="0" stop-color="#7db4ff" stop-opacity="1"/><stop id="stop5451" offset="1" stop-color="#2460e9" stop-opacity="1"/></linearGradient><linearGradient id="linearGradient5415"><stop id="stop5417" offset="0" stop-color="#0020ff" stop-opacity="1"/><stop id="stop5419" offset="1" stop-color="#3d7dff" stop-opacity="0"/></linearGradient><linearGradient id="linearGradient5295"><stop id="stop5297" offset="0" stop-color="#000067" stop-opacity="1"/><stop id="stop5299" offset="1" stop-color="#000067" stop-opacity="0"/></linearGradient><linearGradient id="linearGradient5289" osb:paint="solid"><stop id="stop5291" offset="0" stop-color="#000067" stop-opacity="1"/></linearGradient><linearGradient id="linearGradient4065"><stop id="stop4067" offset="0" stop-color="#006ae3" stop-opacity="1"/><stop id="stop4077" offset="1" stop-color="#002262" stop-opacity="1"/></linearGradient><linearGradient id="linearGradient5322"><stop id="stop5324" offset="0" stop-color="#757575" stop-opacity="1"/><stop id="stop5326" offset="1" stop-color="#757575" stop-opacity="0"/></linearGradient><linearGradient id="linearGradient5312" osb:paint="solid"><stop id="stop5314" offset="0" stop-color="#757575" stop-opacity="1"/></linearGradient><linearGradient id="linearGradient3860"><stop id="stop5354" offset="0" stop-color="#e2e2e2" stop-opacity="1"/><stop id="stop3864" offset="1" stop-color="#fff" stop-opacity="1"/></linearGradient><linearGradient id="linearGradient3785"><stop id="stop3787" offset="0" stop-color="#bcbcbc" stop-opacity="1"/><stop id="stop3789" offset="1" stop-color="#bcbcbc" stop-opacity="0"/></linearGradient><linearGradient id="linearGradient3775"><stop id="stop3777" offset="0" stop-color="#bcbcbc" stop-opacity="1"/><stop id="stop3779" offset="1" stop-color="#f2f2f2" stop-opacity="1"/></linearGradient><linearGradient id="linearGradient3767"><stop id="stop3769" offset="0" stop-color="#fff" stop-opacity="1"/><stop id="stop3771" offset="1" stop-color="#ededed" stop-opacity="1"/></linearGradient><linearGradient id="linearGradient3791" x1="39.103" x2="8.089" y1="44.102" y2="3.494" gradientUnits="userSpaceOnUse" xlink:href="#linearGradient3785"/><filter id="filter4109" color-interpolation-filters="sRGB"><feGaussianBlur id="feGaussianBlur4111" result="result8" stdDeviation="4"/><feOffset id="feOffset4113" dx="4" dy="4" result="result11"/><feComposite id="feComposite4115" in="SourceGraphic" in2="result11" operator="in" result="result6"/><feFlood id="feFlood4117" flood-color="#000" flood-opacity="1" in="result6" result="result10"/><feBlend id="feBlend4119" in="result6" in2="result10" mode="normal" result="result12"/><feComposite id="feComposite4121" in2="SourceGraphic" operator="in" result="result2"/></filter><linearGradient id="linearGradient5301" x1="26.911" x2="67.976" y1="61.866" y2="61.866" gradientTransform="matrix(0,0.61793235,-0.66641927,0,59.228571,-11.316914)" gradientUnits="userSpaceOnUse" spreadMethod="pad" xlink:href="#linearGradient4065"/><linearGradient id="linearGradient5453-8" x1="47" x2="47" y1="46" y2="57" gradientUnits="userSpaceOnUse" xlink:href="#linearGradient5447-8"/><linearGradient id="linearGradient5447-8"><stop id="stop5449-1" offset="0" stop-color="#7db4ff" stop-opacity="1"/><stop id="stop5451-2" offset="1" stop-color="#2460e9" stop-opacity="1"/></linearGradient><linearGradient id="linearGradient3823" x1="26.911" x2="67.976" y1="61.866" y2="61.866" gradientTransform="matrix(0,0.61793235,-0.66641927,0,59.228571,-11.316914)" gradientUnits="userSpaceOnUse" spreadMethod="pad" xlink:href="#linearGradient4065"/><linearGradient id="linearGradient3826" x1="26.911" x2="67.976" y1="61.866" y2="61.866" gradientTransform="matrix(0,0.61793235,-0.66641927,0,59.228571,-11.316914)" gradientUnits="userSpaceOnUse" spreadMethod="pad" xlink:href="#linearGradient4065"/><linearGradient id="linearGradient3829" x1="26.911" x2="67.976" y1="61.866" y2="61.866" gradientTransform="matrix(0,0.61793235,-0.66641927,0,59.228571,-11.316914)" gradientUnits="userSpaceOnUse" spreadMethod="pad" xlink:href="#linearGradient4065"/><linearGradient id="linearGradient3832" x1="26.911" x2="67.976" y1="61.866" y2="61.866" gradientTransform="matrix(0,0.61793235,-0.66641927,0,59.228571,-11.316914)" gradientUnits="userSpaceOnUse" spreadMethod="pad" xlink:href="#linearGradient4065"/><linearGradient id="linearGradient3835" x1="26.911" x2="67.976" y1="61.866" y2="61.866" gradientTransform="matrix(0,0.61793235,-0.66641927,0,59.228571,-11.316914)" gradientUnits="userSpaceOnUse" spreadMethod="pad" xlink:href="#linearGradient4065"/><linearGradient id="linearGradient3838" x1="26.911" x2="67.976" y1="61.866" y2="61.866" gradientTransform="matrix(0,0.61793235,-0.66641927,0,59.228571,-11.316914)" gradientUnits="userSpaceOnUse" spreadMethod="pad" xlink:href="#linearGradient4065"/><linearGradient id="linearGradient3841" x1="26.911" x2="67.976" y1="61.866" y2="61.866" gradientTransform="matrix(0,0.61793235,-0.66641927,0,59.228571,-11.316914)" gradientUnits="userSpaceOnUse" spreadMethod="pad" xlink:href="#linearGradient4065"/><linearGradient id="linearGradient3844" x1="26.911" x2="67.976" y1="61.866" y2="61.866" gradientTransform="matrix(0,0.61793235,-0.66641927,0,59.228571,-11.316914)" gradientUnits="userSpaceOnUse" spreadMethod="pad" xlink:href="#linearGradient4065"/><linearGradient id="linearGradient3847" x1="26.911" x2="67.976" y1="61.866" y2="61.866" gradientTransform="matrix(0,0.61793235,-0.66641927,0,59.228571,-11.316914)" gradientUnits="userSpaceOnUse" spreadMethod="pad" xlink:href="#linearGradient4065"/><linearGradient id="linearGradient3850" x1="26.911" x2="67.976" y1="61.866" y2="61.866" gradientTransform="matrix(0,0.61793235,-0.66641927,0,59.228571,-11.316914)" gradientUnits="userSpaceOnUse" spreadMethod="pad" xlink:href="#linearGradient4065"/><linearGradient id="linearGradient3056" x1="47" x2="47" y1="46" y2="57" gradientTransform="matrix(0.60957788,0,0,0.62500001,-10.965095,51.500006)" gradientUnits="userSpaceOnUse" xlink:href="#linearGradient5447-8"/><linearGradient id="linearGradient3058" x1="47" x2="47" y1="46" y2="57" gradientTransform="matrix(0.60957788,0,0,0.62500001,-10.965098,39.499998)" gradientUnits="userSpaceOnUse" xlink:href="#linearGradient5447"/><linearGradient id="linearGradient3061" x1="26.911" x2="67.976" y1="61.866" y2="61.866" gradientTransform="matrix(0,0.61793235,-0.66641927,0,59.228571,-11.316914)" gradientUnits="userSpaceOnUse" spreadMethod="pad" xlink:href="#linearGradient4065"/></defs><metadata id="metadata2990"/><g id="layer2" display="inline" transform="translate(0,-60)"><path id="rect3073" fill="url(#linearGradient3061)" fill-opacity="1" fill-rule="evenodd" stroke="none" d="m 4.3125,5.3125 0,25.375 27.375,0 0,-25.375 -27.375,0 z M 6,7 10,7 10,9 6,9 6,7 z m 5,0 14,0 0,10 -14,0 0,-10 z m 15,0 4,0 0,2 -4,0 0,-2 z m -20,4 4,0 0,2 -4,0 0,-2 z m 20,0 4,0 0,2 -4,0 0,-2 z m -20,4 4,0 0,2 -4,0 0,-2 z m 20,0 4,0 0,2 -4,0 0,-2 z m -20,4 4,0 0,2 -4,0 0,-2 z m 5,0 14,0 0,10 -14,0 0,-10 z m 15,0 4,0 0,2 -4,0 0,-2 z m -20,4 4,0 0,2 -4,0 0,-2 z m 20,0 4,0 0,2 -4,0 0,-2 z m -20,4 4,0 0,2 -4,0 0,-2 z m 20,0 4,0 0,2 -4,0 0,-2 z" opacity=".9" transform="translate(0,60)"/></g><g id="g3049" display="inline" transform="translate(0,-60)"><rect id="rect3051" width="25.375" height="27.375" x="65.312" y="-31.688" fill="none" stroke="#00205e" stroke-opacity="1" stroke-width=".625" transform="matrix(0,1,-1,0,0,0)"/></g><g id="g3048" transform="translate(0,-60)"><rect id="rect3050" width="14" height="10" x="11" y="67" fill="url(#linearGradient3058)" fill-opacity="1" fill-rule="evenodd" stroke="none" opacity=".9"/><rect id="rect3052" width="14" height="10" x="11" y="79" fill="url(#linearGradient3056)" fill-opacity="1" fill-rule="evenodd" stroke="none" opacity=".9"/></g><g id="layer5" transform="translate(0,-60)"><path id="path3051" fill="#fff" fill-opacity="1" stroke="none" stroke-width="1" d="M 11,67 11,89 22,67 z" color="#000" display="inline" enable-background="accumulate" opacity=".15" overflow="visible" visibility="visible" style="marker:none"/></g></svg>