<svg xmlns="http://www.w3.org/2000/svg" xmlns:svg="http://www.w3.org/2000/svg" xmlns:xlink="http://www.w3.org/1999/xlink" id="svg2" width="96" height="96" version="1.1"><defs id="defs4"><linearGradient id="linearGradient4173"><stop id="stop4175" offset="0" stop-color="#1a1a1a" stop-opacity="1"/><stop id="stop4177" offset="1" stop-color="#666" stop-opacity="1"/></linearGradient><linearGradient id="linearGradient4157"><stop id="stop4159" offset="0" stop-color="#4d4d4d" stop-opacity="1"/><stop id="stop4161" offset="1" stop-color="#000" stop-opacity="1"/></linearGradient><linearGradient id="linearGradient4139"><stop id="stop4141" offset="0" stop-color="#1a1a1a" stop-opacity="1"/><stop id="stop4143" offset="1" stop-color="#4d4d4d" stop-opacity="1"/></linearGradient><linearGradient id="linearGradient4119"><stop id="stop4121" offset="0" stop-color="#8c5000" stop-opacity="1"/><stop id="stop4123" offset="1" stop-color="#c08400" stop-opacity="1"/></linearGradient><linearGradient id="linearGradient4111"><stop id="stop4113" offset="0" stop-color="#804400" stop-opacity="1"/><stop id="stop4115" offset="1" stop-color="#cc9004" stop-opacity="1"/></linearGradient><linearGradient id="linearGradient4075"><stop id="stop4077" offset="0" stop-color="#cc980c" stop-opacity="1"/><stop id="stop4079" offset="1" stop-color="#a46800" stop-opacity="1"/></linearGradient><linearGradient id="linearGradient4103" x1="26.583" x2="14.076" y1="10.08" y2="22.101" gradientTransform="matrix(3.1407838,0,0,2.947759,-20.001671,958.47207)" gradientUnits="userSpaceOnUse" xlink:href="#linearGradient4075"/><linearGradient id="linearGradient4117" x1="23.5" x2="11.688" y1="1034.581" y2="1037.112" gradientTransform="matrix(3.1407838,0,0,2.947759,-20.001671,-2037.5187)" gradientUnits="userSpaceOnUse" xlink:href="#linearGradient4111"/><linearGradient id="linearGradient4125" x1="23.875" x2="13.063" y1="1029.487" y2="1029.55" gradientTransform="matrix(3.1407838,0,0,2.947759,-20.001671,-2037.5187)" gradientUnits="userSpaceOnUse" xlink:href="#linearGradient4119"/><linearGradient id="linearGradient4145" x1="34.688" x2="30.625" y1="1023.675" y2="1021.081" gradientTransform="matrix(3.8172601,0,0,2.947759,-47.492589,-2042.0325)" gradientUnits="userSpaceOnUse" xlink:href="#linearGradient4139"/><linearGradient id="linearGradient4149" x1="34.688" x2="30.625" y1="1023.675" y2="1021.081" gradientTransform="matrix(3.1407838,0,0,2.947759,-25.521859,-1971.8226)" gradientUnits="userSpaceOnUse" xlink:href="#linearGradient4139"/><linearGradient id="linearGradient4153" x1="34.688" x2="30.625" y1="1023.675" y2="1021.081" gradientTransform="matrix(5.2819299,0,0,2.947759,-94.205804,-1967.0024)" gradientUnits="userSpaceOnUse" xlink:href="#linearGradient4139"/><linearGradient id="linearGradient4163" x1="20.639" x2="21.081" y1="6.92" y2="12.665" gradientTransform="matrix(3.1407838,0,0,2.947759,-20.001671,958.47207)" gradientUnits="userSpaceOnUse" xlink:href="#linearGradient4157"/><linearGradient id="linearGradient4167" x1="20.639" x2="21.081" y1="6.92" y2="12.665" gradientTransform="matrix(3.1407838,0,0,-2.947759,-19.862867,1055.7442)" gradientUnits="userSpaceOnUse" xlink:href="#linearGradient4157"/><linearGradient id="linearGradient4179" x1="31.864" x2="28.284" y1="1031.547" y2="1031.547" gradientTransform="matrix(3.1407838,0,0,2.947759,-20.001671,-2037.5187)" gradientUnits="userSpaceOnUse" xlink:href="#linearGradient4173"/><filter id="filter3798" width="1.081" height="1.232" x="-.04" y="-.116" color-interpolation-filters="sRGB"><feGaussianBlur id="feGaussianBlur3800" stdDeviation=".316"/></filter></defs><metadata id="metadata7"/><g id="layer1" transform="translate(0,-956.3622)"><rect id="rect4073" width="59.086" height="45.874" x="7.676" y="984.265" fill="url(#linearGradient4103)" fill-opacity="1" stroke="#c4a000" stroke-dasharray="none" stroke-linejoin="miter" stroke-miterlimit="4" stroke-opacity="1" stroke-width="0" ry="6.218"/><rect id="rect4083" width="44.279" height="9.966" x="14.769" y="992.42" fill="url(#linearGradient4125)" fill-opacity="1" stroke="#502d16" stroke-dasharray="none" stroke-linejoin="miter" stroke-miterlimit="4" stroke-opacity="1" stroke-width="0" ry="4.983"/><rect id="rect4085" width="44.279" height="9.966" x="14.769" y="1010.567" fill="url(#linearGradient4117)" fill-opacity="1" stroke="#502d16" stroke-dasharray="none" stroke-linejoin="miter" stroke-miterlimit="4" stroke-opacity="1" stroke-width="0" ry="4.983"/><rect id="rect4099" width="21.792" height="1.433" x="25.804" y="996.654" fill="#4d4d4d" fill-opacity="1" stroke="#c4a000" stroke-dasharray="none" stroke-linejoin="miter" stroke-miterlimit="4" stroke-opacity="1" stroke-width="0" ry=".717"/><rect id="rect4101" width="21.792" height="1.433" x="25.804" y="1014.34" fill="#4d4d4d" fill-opacity="1" stroke="#c4a000" stroke-dasharray="none" stroke-linejoin="miter" stroke-miterlimit="4" stroke-opacity="1" stroke-width="0" ry=".717"/><path id="path4109" fill="#fff" stroke="#000" stroke-dasharray="none" stroke-linecap="butt" stroke-linejoin="miter" stroke-miterlimit="4" stroke-opacity="1" stroke-width="0" d="m 22.640514,1027.3077 c 0,0 -16.1683877,-0.1075 -16.4178647,-0.1138 -1.7581299,-0.046 -2.4817317,1.8851 -2.3294361,2.1776 l 0,4.3726 1.1396201,-3.9918 c 0.3786338,-0.9991 1.4082263,-1.3447 2.6768385,-1.4505 z" filter="url(#filter3798)" opacity=".261" transform="matrix(2.6334028,0,0,2.6334028,-1.1948444,-1718.9183)"/><rect id="rect4137" width="10.6" height="82.261" x="69.903" y="959.301" fill="url(#linearGradient4179)" fill-opacity="1" stroke="#333" stroke-dasharray="none" stroke-linejoin="miter" stroke-miterlimit="4" stroke-opacity="1" stroke-width="0" ry="2.531"/><rect id="rect4135" width="23.261" height="9.304" x="63.327" y="966.026" fill="url(#linearGradient4145)" fill-opacity="1" stroke="#333" stroke-dasharray="none" stroke-linejoin="miter" stroke-miterlimit="4" stroke-opacity="1" stroke-width="0" ry="2.175"/><rect id="rect4147" width="19.139" height="9.304" x="65.659" y="1036.235" fill="url(#linearGradient4149)" fill-opacity="1" stroke="#333" stroke-dasharray="none" stroke-linejoin="miter" stroke-miterlimit="4" stroke-opacity="1" stroke-width="0" ry="2.175"/><rect id="rect4151" width="32.187" height="9.304" x="59.135" y="1041.055" fill="url(#linearGradient4153)" fill-opacity="1" stroke="#333" stroke-dasharray="none" stroke-linejoin="miter" stroke-miterlimit="4" stroke-opacity="1" stroke-width="0" ry="2.175"/><path id="path4155" fill="url(#linearGradient4163)" fill-opacity="1" stroke="#000" stroke-dasharray="none" stroke-linecap="butt" stroke-linejoin="miter" stroke-miterlimit="4" stroke-opacity="1" stroke-width="0" d="m 69.903266,988.04171 c -1.078615,-1.42536 -1.50545,-3.17678 -4.416727,-3.68477 l -51.978403,-0.0301 c -4.6795757,0.8264 -5.5574284,4.16245 -5.7154641,5.01699 -0.1492005,3.66579 -0.06456,1.81425 -0.10747,6.958 -3.1728158,-2.53575 -3.5342946,-8.81637 -2.3204109,-15.24047 0.192663,-2.94455 17.104583,-0.4255 7.229382,-1.36079 l 53.579413,-0.77905 c 2.187937,-0.1243 2.656865,-1.46125 3.827831,-2.30323 z"/><path id="path4165" fill="url(#linearGradient4167)" fill-opacity="1" stroke="#000" stroke-dasharray="none" stroke-linecap="butt" stroke-linejoin="miter" stroke-miterlimit="4" stroke-opacity="1" stroke-width="0" d="m 70.04207,1026.1743 c -1.078616,1.4254 -1.505451,3.1768 -4.416726,3.6847 l -51.978405,0.03 c -4.6795742,-0.8258 -5.5574269,-4.1619 -5.7154626,-5.0164 -0.1492005,-3.666 -0.064564,-1.8143 -0.10747,-6.9579 -3.1728157,2.5356 -3.5342944,8.8162 -2.3204112,15.2403 0.192663,2.9446 17.1045818,0.4255 7.2293808,1.3607 l 53.579414,0.7816 c 2.187935,0.1243 2.656866,1.4613 3.827831,2.3032 z"/><path id="path4193" fill="gray" stroke="#000" stroke-dasharray="none" stroke-linecap="butt" stroke-linejoin="miter" stroke-miterlimit="4" stroke-opacity="1" stroke-width="0" d="m 80.492675,980.13815 c 0,0 1.596253,1.49823 0.832825,2.41 -0.763424,0.91204 -12.353588,12.37643 -12.561792,11.65986 -0.208196,-0.71685 1.388044,-2.54053 1.388044,-2.54053"/><path id="path4201" fill="gray" stroke="#000" stroke-dasharray="none" stroke-linecap="butt" stroke-linejoin="miter" stroke-miterlimit="4" stroke-opacity="1" stroke-width="0" d="m 81.190964,993.94452 c 0,0 1.59625,1.49762 0.832822,2.40994 -0.763421,0.91204 -12.353585,12.37634 -12.561792,11.65934 -0.208197,-0.7165 1.388044,-2.5401 1.388044,-2.5401"/><path id="path4205" fill="gray" stroke="#000" stroke-dasharray="none" stroke-linecap="butt" stroke-linejoin="miter" stroke-miterlimit="4" stroke-opacity="1" stroke-width="0" d="m 81.423724,1010.8564 c 0,0 1.59625,1.4978 0.832823,2.41 -0.763423,0.912 -12.353586,12.3763 -12.561792,11.6594 -0.208196,-0.7165 1.388044,-2.5402 1.388044,-2.5402"/></g></svg>