<svg xmlns="http://www.w3.org/2000/svg" xmlns:svg="http://www.w3.org/2000/svg" id="svg2985" width="48" height="48" version="1.1"><metadata id="metadata2990"/><g id="layer1"><path id="path3805" fill="#333" fill-opacity="1" stroke="none" stroke-width=".4" d="M 3.857143,10.518519 10,17 C 11.364744,14.4668 15.337645,7.274422 22.285714,2.7407411 14.688129,5.6450413 8.778494,14.045416 10,13.111111 L 7.5428573,6.6296305 z" color="#000" display="inline" enable-background="accumulate" opacity=".6" overflow="visible" visibility="visible" style="marker:none"/><path id="path3805-1" fill="#333" fill-opacity="1" stroke="none" stroke-width=".4" d="M 3.857143,24.518519 10,31 C 11.364744,28.4668 15.337645,21.274421 22.285714,16.74074 14.688129,19.64504 8.778494,28.045415 10,27.111111 L 7.5428573,20.629629 z" color="#000" display="inline" enable-background="accumulate" opacity=".6" overflow="visible" visibility="visible" style="marker:none"/><path id="path3805-7" fill="#333" fill-opacity="1" stroke="none" stroke-width=".4" d="M 3.857143,38.518518 10,45 C 11.364744,42.4668 15.337645,35.274422 22.285714,30.740741 14.688129,33.645041 8.7784942,42.045415 10,41.111111 L 7.5428573,34.62963 z" color="#000" display="inline" enable-background="accumulate" opacity=".6" overflow="visible" visibility="visible" style="marker:none"/><path id="path3832" fill="#333" fill-opacity="1" stroke="none" stroke-width="1" d="m 25,5 0,3 12,0 0,-3 z" color="#000" display="inline" enable-background="accumulate" opacity=".6" overflow="visible" visibility="visible" style="marker:none"/><path id="path3834" fill="#333" fill-opacity="1" stroke="none" stroke-width="1" d="m 25,12 0,3 21,0 0,-3 z" color="#000" display="inline" enable-background="accumulate" opacity=".6" overflow="visible" visibility="visible" style="marker:none"/><path id="path3832-1" fill="#333" fill-opacity="1" stroke="none" stroke-width="1" d="m 25,19 0,3 12,0 0,-3 z" color="#000" display="inline" enable-background="accumulate" opacity=".6" overflow="visible" visibility="visible" style="marker:none"/><path id="path3834-7" fill="#333" fill-opacity="1" stroke="none" stroke-width="1" d="m 25,26 0,3 21,0 0,-3 z" color="#000" display="inline" enable-background="accumulate" opacity=".6" overflow="visible" visibility="visible" style="marker:none"/><path id="path3832-4" fill="#333" fill-opacity="1" stroke="none" stroke-width="1" d="m 25,33 0,3 12,0 0,-3 z" color="#000" display="inline" enable-background="accumulate" opacity=".6" overflow="visible" visibility="visible" style="marker:none"/><path id="path3834-0" fill="#333" fill-opacity="1" stroke="none" stroke-width="1" d="m 25,40 0,3 21,0 0,-3 z" color="#000" display="inline" enable-background="accumulate" opacity=".6" overflow="visible" visibility="visible" style="marker:none"/></g></svg>