<svg xmlns="http://www.w3.org/2000/svg" xmlns:osb="http://www.openswatchbook.org/uri/2009/osb" xmlns:svg="http://www.w3.org/2000/svg" xmlns:xlink="http://www.w3.org/1999/xlink" id="svg2" width="180" height="120" version="1.1"><defs id="defs4"><filter id="filter3763"><feGaussianBlur id="feGaussianBlur3765" stdDeviation=".222"/></filter><filter id="filter3913"><feGaussianBlur id="feGaussianBlur3915" stdDeviation="1.624"/></filter><linearGradient id="linearGradient3841" x1="35.5" x2="35.5" y1="18.87" y2="59.837" gradientUnits="userSpaceOnUse" xlink:href="#linearGradient3835"/><linearGradient id="linearGradient3831" x1="35.5" x2="35.5" y1="3.501" y2="23.025" gradientUnits="userSpaceOnUse" xlink:href="#linearGradient3825"/><linearGradient id="linearGradient3932"><stop id="stop3934" offset="0" stop-color="#bdbdbd" stop-opacity="1"/><stop id="stop4044" offset=".248" stop-color="#929292" stop-opacity="1"/><stop id="stop4046" offset=".469" stop-color="#8d8d8d" stop-opacity="1"/><stop id="stop4042" offset=".775" stop-color="#d7d7d7" stop-opacity="1"/><stop id="stop3936" offset="1" stop-color="#ababab" stop-opacity="1"/></linearGradient><linearGradient id="linearGradient3944"><stop id="stop3946" offset="0" stop-color="#3d3d3d" stop-opacity="1"/><stop id="stop4040" offset=".25" stop-color="#5f5f5f" stop-opacity="1"/><stop id="stop4036" offset=".5" stop-color="#a4a4a4" stop-opacity="1"/><stop id="stop4038" offset=".75" stop-color="#757575" stop-opacity="1"/><stop id="stop3948" offset="1" stop-color="#7d7d7d" stop-opacity="1"/></linearGradient><linearGradient id="linearGradient3964"><stop id="stop3966" offset="0" stop-color="#000" stop-opacity="1"/><stop id="stop3970" offset=".712" stop-color="#afafaf" stop-opacity="1"/><stop id="stop3968" offset="1" stop-color="#757575" stop-opacity="1"/></linearGradient><linearGradient id="linearGradient3980"><stop id="stop3982" offset="0" stop-color="#c7c7c7" stop-opacity="1"/><stop id="stop4048" offset=".5" stop-color="#757575" stop-opacity="1"/><stop id="stop3984" offset="1" stop-color="#989898" stop-opacity="1"/></linearGradient><linearGradient id="linearGradient4050"><stop id="stop4052" offset="0" stop-color="#2e2e2e" stop-opacity="1"/><stop id="stop4058" offset=".5" stop-color="#d3d3d3" stop-opacity="1"/><stop id="stop4054" offset="1" stop-color="#292929" stop-opacity="1"/></linearGradient><linearGradient id="linearGradient3828"><stop id="stop3830" offset="0" stop-color="#fff" stop-opacity="1"/><stop id="stop3852" offset=".388" stop-color="#dfdfdf" stop-opacity="1"/><stop id="stop3838" offset=".486" stop-color="#e5e5e5" stop-opacity="1"/><stop id="stop3834" offset=".587" stop-color="#c2c2c2" stop-opacity="1"/><stop id="stop3836" offset=".793" stop-color="#71839e" stop-opacity="1"/><stop id="stop3832" offset="1" stop-color="#a4abdc" stop-opacity="1"/></linearGradient><linearGradient id="linearGradient3844"><stop id="stop3846" offset="0" stop-color="#001e8c" stop-opacity="0"/><stop id="stop3854" offset=".515" stop-color="#fff" stop-opacity="1"/><stop id="stop3848" offset="1" stop-color="#fff" stop-opacity="0"/></linearGradient><linearGradient id="linearGradient3858"><stop id="stop3860" offset="0" stop-color="#020024" stop-opacity="1"/><stop id="stop3862" offset="1" stop-color="#020024" stop-opacity="0"/></linearGradient><linearGradient id="linearGradient5314" osb:paint="solid"><stop id="stop5316" offset="0" stop-color="#001e8c" stop-opacity="1"/></linearGradient><linearGradient id="linearGradient5326"><stop id="stop5328" offset="0" stop-color="#1d48e6" stop-opacity=".508"/><stop id="stop5330" offset="1" stop-color="#001e8c" stop-opacity="0"/></linearGradient><linearGradient id="linearGradient5396"><stop id="stop5398" offset="0" stop-color="#000722" stop-opacity="1"/><stop id="stop5406" offset=".399" stop-color="#202d5d" stop-opacity="1"/><stop id="stop5404" offset=".697" stop-color="#001664" stop-opacity="1"/><stop id="stop5408" offset=".815" stop-color="#243265" stop-opacity="1"/><stop id="stop5400" offset="1" stop-color="#00092b" stop-opacity="1"/></linearGradient><linearGradient id="linearGradient3825"><stop id="stop3827" offset="0" stop-color="#fc0" stop-opacity="1"/><stop id="stop3829" offset="1" stop-color="#866b00" stop-opacity="1"/></linearGradient><linearGradient id="linearGradient3835"><stop id="stop3837" offset="0" stop-color="#fc0" stop-opacity="1"/><stop id="stop3839" offset="1" stop-color="#866b00" stop-opacity="1"/></linearGradient><linearGradient id="linearGradient3851"><stop id="stop3853" offset="0" stop-color="#ececec" stop-opacity="1"/><stop id="stop3855" offset="1" stop-color="#d0d0d0" stop-opacity="1"/></linearGradient><linearGradient id="linearGradient4014" x1="35.5" x2="35.5" y1="3.501" y2="23.025" gradientUnits="userSpaceOnUse" xlink:href="#linearGradient3825"/><linearGradient id="linearGradient4016" x1="35.5" x2="35.5" y1="18.87" y2="59.837" gradientUnits="userSpaceOnUse" xlink:href="#linearGradient3835"/><filter id="filter4018"><feGaussianBlur id="feGaussianBlur4020" stdDeviation="1.425"/></filter></defs><metadata id="metadata7"/><g id="layer1" display="inline" transform="translate(0,-932.36218)"><rect id="rect2985" width="245.76" height="120" x="-32.88" y="932.362" fill="#a1a1a1" fill-opacity="1" fill-rule="evenodd" stroke="none"/><rect id="rect3758" width="180" height="120" x="0" y="932.362" fill="#d0d0d0" fill-opacity="1" fill-rule="evenodd" stroke="none"/><rect id="rect3756" width="221.76" height="96" x="-20.88" y="944.362" fill="none" stroke="#e70000" stroke-opacity="1"/></g><g id="layer3" display="inline"><rect id="rect2987" width="245.76" height="120" x="-32.88" y="932.362" fill="#202020" fill-opacity="1" fill-rule="evenodd" stroke="none" display="inline" transform="translate(0,-932.36218)"/></g><g id="layer2" display="inline"><g id="g3986" filter="url(#filter4018)" transform="matrix(6,0,0,6,-126,-78.71763)"><g id="g3988" display="none"><rect id="rect3990" width="59" height="59" x="6.5" y="-1.5" fill="none" stroke="#000" stroke-opacity="1" stroke-width=".167" display="inline" transform="translate(0,8)"/><rect id="rect3992" width="55" height="55" x="8.5" y=".5" fill="none" stroke="#ff0c0c" stroke-opacity="1" stroke-width=".167" display="inline" transform="translate(0,8)"/></g><g id="g3994" display="inline" transform="translate(0,8)"><path id="path3996" fill="#000" fill-opacity="1" fill-rule="evenodd" stroke="none" d="M 9.0125001,5.975 7.1000001,9.8 C 6.2352958,11.471394 6,12.354893 6,14 L 6,14.5625 6,50.625 C 6.049262,55.459508 7.2146306,56 11.25,56 L 61,56 c 4.788188,0.02952 4.9375,-0.49714 5,-5.125 l 0,-32.5 C 65.946742,13.140923 64.912462,12.21875 60.025,12 L 30,12 27.0375,6.075 C 26.349407,4.5160243 25.237897,4 23.625,4 L 12.4375,4 C 10.509513,4.1476882 9.728666,4.41767 9.0125001,5.975 z" filter="url(#filter3913)"/><path id="path3998" fill="url(#linearGradient4014)" fill-opacity="1" fill-rule="evenodd" stroke="none" d="M 9.0125001,3.975 7.1000001,7.8 C 6.2352958,9.471394 6,10.354893 6,12 L 6,12.5625 6,48.625 C 6.049262,53.459508 7.2146306,54 11.25,54 L 61,54 c 4.788188,0.02952 4.9375,-0.49714 5,-5.125 l 0,-32.5 C 65.946742,11.140923 64.912462,10.21875 60.025,10 L 30,10 27.0375,4.075 C 26.349407,2.5160243 25.237897,2 23.625,2 L 12.4375,2 C 10.509513,2.1476882 9.728666,2.41767 9.0125001,3.975 z"/><path id="path4000" fill="url(#linearGradient4016)" fill-opacity="1" fill-rule="evenodd" stroke="none" d="M 11.821195,13.38731 C 7.1960486,13.413996 6.1344297,13.828441 6.125,18.945733 L 6,48.625 C 6.049262,53.459508 7.2146306,54 11.25,54 L 61,54 c 4.788188,0.02952 4.9375,-0.49714 5,-5.125 l 0,-30.5 c -0.05326,-5.234077 -1.087538,-4.56526 -5.975,-4.78401 z"/></g></g></g><g id="layer4"><text id="text2991" x="10.417" y="102.429" fill="#000" fill-opacity="1" stroke="#443d00" stroke-opacity="1" filter="url(#filter3763)" font-family="Bitstream Vera Sans" font-size="22" font-style="normal" font-weight="normal" letter-spacing="0" word-spacing="0" xml:space="preserve" style="line-height:125%"><tspan id="tspan2993" x="10.417" y="102.429">OI File Manager</tspan></text><g id="g3977" transform="translate(54,5.2851563)"><g id="layer2-3" display="none"><rect id="rect2993" width="59" height="59" x="6.5" y="-1.5" fill="none" stroke="#000" stroke-opacity="1" stroke-width="1" display="inline" transform="translate(0,8)"/><rect id="rect2993-1" width="55" height="55" x="8.5" y=".5" fill="none" stroke="#ff0c0c" stroke-opacity="1" stroke-width="1" display="inline" transform="translate(0,8)"/></g><g id="layer1-8" display="inline" transform="translate(0,8)"><path id="path3859" fill="#000" fill-opacity="1" fill-rule="evenodd" stroke="none" d="M 9.0125001,5.975 7.1000001,9.8 C 6.2352958,11.471394 6,12.354893 6,14 L 6,14.5625 6,50.625 C 6.049262,55.459508 7.2146306,56 11.25,56 L 61,56 c 4.788188,0.02952 4.9375,-0.49714 5,-5.125 l 0,-32.5 C 65.946742,13.140923 64.912462,12.21875 60.025,12 L 30,12 27.0375,6.075 C 26.349407,4.5160243 25.237897,4 23.625,4 L 12.4375,4 C 10.509513,4.1476882 9.728666,4.41767 9.0125001,5.975 z" filter="url(#filter3913)"/><path id="rect3050" fill="url(#linearGradient3831)" fill-opacity="1" fill-rule="evenodd" stroke="none" d="M 9.0125001,3.975 7.1000001,7.8 C 6.2352958,9.471394 6,10.354893 6,12 L 6,12.5625 6,48.625 C 6.049262,53.459508 7.2146306,54 11.25,54 L 61,54 c 4.788188,0.02952 4.9375,-0.49714 5,-5.125 l 0,-32.5 C 65.946742,11.140923 64.912462,10.21875 60.025,10 L 30,10 27.0375,4.075 C 26.349407,2.5160243 25.237897,2 23.625,2 L 12.4375,2 C 10.509513,2.1476882 9.728666,2.41767 9.0125001,3.975 z"/><path id="path3833" fill="url(#linearGradient3841)" fill-opacity="1" fill-rule="evenodd" stroke="none" d="M 11.821195,13.38731 C 7.1960486,13.413996 6.1344297,13.828441 6.125,18.945733 L 6,48.625 C 6.049262,53.459508 7.2146306,54 11.25,54 L 61,54 c 4.788188,0.02952 4.9375,-0.49714 5,-5.125 l 0,-30.5 c -0.05326,-5.234077 -1.087538,-4.56526 -5.975,-4.78401 z"/></g></g></g></svg>