<svg xmlns="http://www.w3.org/2000/svg" xmlns:svg="http://www.w3.org/2000/svg" xmlns:xlink="http://www.w3.org/1999/xlink" id="svg4209" width="36" height="36" x="0" y="0" enable-background="new 0 0 303.33 457.818" version="1.0" viewBox="0 0 36 36" xml:space="preserve"><metadata id="metadata5344"/><defs id="defs5342"><linearGradient id="linearGradient7331"><stop id="stop7333" offset="0" stop-color="#4f4cdc" stop-opacity="1"/><stop id="stop7335" offset="1" stop-color="#0d0b7b" stop-opacity="1"/></linearGradient><linearGradient id="linearGradient9032"><stop id="stop9034" offset="0" stop-color="#6f62ff" stop-opacity="1"/><stop id="stop9036" offset="1" stop-color="#4f3fff" stop-opacity="1"/></linearGradient><radialGradient id="radialGradient9038" cx="83.603" cy="86.001" r="60.5" fx="83.603" fy="86.001" gradientTransform="matrix(1,0,0,1.3719008,-275.95143,-98.15389)" gradientUnits="userSpaceOnUse" xlink:href="#linearGradient9032"/><radialGradient id="radialGradient7337-1" cx="52.986" cy="165.313" r="12.514" fx="52.986" fy="165.313" gradientTransform="matrix(1,0,0,1.3584259,0,-59.252278)" gradientUnits="userSpaceOnUse" xlink:href="#linearGradient7331-7"/><linearGradient id="linearGradient7331-7"><stop id="stop7333-4" offset="0" stop-color="#4441d9" stop-opacity="1"/><stop id="stop7335-0" offset="1" stop-color="#1713d1" stop-opacity="1"/></linearGradient><radialGradient id="radialGradient3825" cx="54.5" cy="158.215" r="12.514" fx="54.5" fy="158.215" gradientTransform="matrix(-0.79907397,2.2374081,-1.2792867,-0.45688789,299.4517,105.66022)" gradientUnits="userSpaceOnUse" xlink:href="#linearGradient7331"/></defs><switch id="switch4211" transform="translate(-34.5,-147.31251)"><g id="g4215"><path id="path3821-4" fill="#0b124c" fill-opacity="1" stroke="#9979ff" stroke-dasharray="none" stroke-linecap="butt" stroke-linejoin="miter" stroke-miterlimit="4" stroke-opacity="1" stroke-width="0" d="M 15 34 L 15 36 L 17 34 L 15 34 z M 18 34 L 20 36 L 20 34 L 18 34 z" transform="translate(34.5,147.31251)"/><path id="path3807" fill="#aeb2da" fill-opacity="1" stroke="#9979ff" stroke-dasharray="none" stroke-linecap="butt" stroke-linejoin="miter" stroke-miterlimit="4" stroke-opacity="1" stroke-width="0" d="m 40.499972,148.31251 -1,1 20,0 2.9e-5,-1 z m 23.00003,12 -3e-5,1 1,0 z m -23.000002,3 -1.000028,1 2,0 z"/><path id="path6551" fill="url(#radialGradient3825)" fill-opacity="1" stroke="#9979ff" stroke-dasharray="none" stroke-linecap="butt" stroke-linejoin="bevel" stroke-miterlimit="4" stroke-opacity="1" stroke-width="0" d="m 39.49997,149.31251 0,8 1,0 0,7 -1,0 -0.02897,19 10.028971,0 0,-1 5,0 0,1 9.999999,0 0,-22 -1,0 0,-2 1,0 0,-5 -5,-5 z"/><g id="g9026" stroke-dasharray="none" stroke-miterlimit="4" stroke-width="0" transform="matrix(0.21402849,0,0,0.20167784,31.984667,143.88559)"><path id="path5324-8" fill="#fff" stroke-dasharray="none" stroke-miterlimit="4" stroke-width="0" d="m 88.893789,129.23519 c 1.576346,-6.86465 -4.41651,-10.08314 -11.536113,-12.19681 -4.822248,-1.42557 -13.578511,-3.41038 -13.578511,-5.12656 0,-2.19591 5.877715,-2.13285 9.967993,-2.24525 4.44941,-0.12063 21.709714,-0.14256 21.709714,-0.14256 l 2.201407,-6.2341 c 0,0 -12.427095,-0.32899 -24.744528,0.28511 -17.759256,0.88001 -21.079177,4.82498 -21.47669,8.59451 -0.548295,4.89626 6.044945,8.28199 10.039268,9.81172 3.813388,1.45024 9.847369,2.53038 9.847369,4.40555 0,1.53522 -2.278166,1.65585 -8.822059,1.53522 -10.143444,-0.18916 -18.661197,-1.19801 -18.661197,-1.19801 l -3.986099,10.99055 c 0,0 9.674653,0.66343 19.99081,0.66343 14.699775,-0.002 26.828044,0.56475 29.048636,-9.1428"/><path id="path5326-8" fill="#fff" stroke-dasharray="none" stroke-miterlimit="4" stroke-width="0" d="m 118.71552,114.74103 c 0.11788,0.25221 0.20013,0.51266 0.24399,0.76761 0.16723,1.01982 -0.2577,2.03143 -1.20351,2.99095 -0.96773,0.97048 -2.45088,1.88613 -4.33975,2.69213 -1.92725,0.8142 -4.25476,1.49958 -6.88109,2.02046 -2.62907,0.51539 -7.023647,0.9458 -10.063943,1.05546 l -4.99222,14.04182 c 11.505963,-0.50443 43.350913,-0.40026 55.591583,-15.59898 1.53247,-2.42345 1.8121,-4.92093 0.48523,-7.31973 -1.48588,-2.72776 -4.32331,-4.85239 -7.72821,-6.52469 l -21.39445,5.38974 c 0.11236,0.16447 0.2111,0.33444 0.28237,0.48523"/><path id="path5328-2" fill="#fff" stroke-dasharray="none" stroke-miterlimit="4" stroke-width="0" d="m 116.90614,112.81103 c 0.0959,0.063 0.18369,0.13434 0.28786,0.20288 l 18.09647,-5.99012 c -1.23641,-0.53733 -2.9471,-1.17335 -4.21092,-1.51329 l -15.67298,6.31085 c 0.44411,0.23577 1.14318,0.74295 1.49957,0.98968"/><path id="path5330-4" fill="#fff" stroke-dasharray="none" stroke-miterlimit="4" stroke-width="0" d="m 111.76863,110.70011 10.68626,-6.64534 c -2.59617,-0.36735 -4.74549,-0.54281 -5.99561,-0.58394 -5.00318,-0.11517 -6.97978,-0.20286 -12.53126,-0.18641 l -2.20963,6.24508 c 1.36526,0.0384 1.97386,-0.006 4.28766,0.21108 2.10546,0.19191 4.0519,0.53186 5.76258,0.95953"/></g><rect id="rect9040" width="22.955" height="7" x="40.545" y="173.313" fill="#ff4747" fill-opacity="1" stroke="#fff" stroke-dasharray="none" stroke-linecap="square" stroke-linejoin="round" stroke-miterlimit="4" stroke-opacity="1" stroke-width="0" ry="1"/><g id="text9042" fill="#fff" fill-opacity="1" stroke="none" stroke-dasharray="none" stroke-miterlimit="4" stroke-width="0" font-family="Motorwerk" font-size="47.021" font-stretch="normal" font-style="normal" font-variant="normal" font-weight="normal" letter-spacing="0" text-anchor="start" transform="matrix(0.21376468,0,0,0.24198627,30.419676,145.51388)" word-spacing="0" writing-mode="lr-tb" style="text-align:start;line-height:125%;-inkscape-font-specification:Motorwerk"><path id="path9066" stroke-dasharray="none" stroke-miterlimit="4" stroke-width="0" d="m 66.33902,139.9707 -7.599652,0 c -1.362284,0 -2.51792,-0.10714 -3.466911,-0.32143 -0.949006,-0.21429 -1.718155,-0.52807 -2.307447,-0.94135 -0.589303,-0.41327 -1.014057,-0.91456 -1.274262,-1.50386 -0.260213,-0.58929 -0.390318,-1.2513 -0.390314,-1.98601 -4e-6,-0.53572 0.06505,-1.11736 0.195157,-1.74493 0.130101,-0.62756 0.302298,-1.28574 0.516593,-1.97454 l 1.262782,-3.85722 c 0.428574,-1.30104 0.952819,-2.47198 1.572737,-3.51283 0.619904,-1.04082 1.389052,-1.9286 2.307448,-2.66332 0.918376,-0.73469 2.016613,-1.29721 3.294713,-1.68754 1.278074,-0.39029 2.789584,-0.58545 4.534535,-0.58547 l 8.219564,0 -0.941347,2.91588 -5.62512,0 c -0.673502,1e-5 -1.266627,0.0689 -1.779375,0.20663 -0.512783,0.13778 -0.975802,0.38268 -1.38906,0.73471 -0.41329,0.35207 -0.788297,0.82274 -1.125024,1.41202 -0.336757,0.58932 -0.650538,1.33551 -0.941347,2.23857 l -1.882693,5.87768 c -0.122464,0.39797 -0.221955,0.77681 -0.298476,1.1365 -0.07654,0.35971 -0.11481,0.69262 -0.114798,0.99875 -1.2e-5,0.75002 0.233411,1.32784 0.70027,1.73345 0.466834,0.40563 1.220676,0.60844 2.261528,0.60843 l 5.211846,0 z"/><path id="path9068" stroke-dasharray="none" stroke-miterlimit="4" stroke-width="0" d="m 77.474462,139.9707 -7.71445,0 4.431217,-13.72988 c 0.428573,-1.34695 0.960472,-2.48346 1.595697,-3.40951 0.635209,-0.92603 1.366091,-1.67221 2.192649,-2.23857 0.826537,-0.56632 1.741096,-0.97194 2.743681,-1.21686 1.002558,-0.24489 2.100795,-0.36734 3.294713,-0.36736 l 7.530773,0 c 1.806135,2e-5 3.214327,0.30232 4.22458,0.90691 1.010196,0.60462 1.515309,1.63398 1.515339,3.08807 -3e-5,0.9031 -0.206667,1.9822 -0.619912,3.23732 l -4.431217,13.72988 -7.69149,0 2.915878,-8.97723 -7.071579,0 z M 88.90838,126.37858 c 0.214268,-0.61225 0.386466,-1.15563 0.516592,-1.63014 0.130083,-0.47448 0.210442,-0.88776 0.241077,-1.23982 -2.2e-5,-0.33673 -0.06125,-0.6199 -0.183677,-0.84951 -0.214313,-0.35203 -0.551054,-0.5625 -1.010226,-0.63139 -0.459214,-0.0689 -1.017899,-0.1033 -1.676056,-0.10332 -0.658196,2e-5 -1.220708,0.0345 -1.687536,0.10332 -0.466864,0.0689 -0.922231,0.27936 -1.366101,0.63139 -0.443903,0.35206 -0.799778,0.84187 -1.067625,1.46942 -0.267878,0.62758 -0.539567,1.37759 -0.815068,2.25005 l -0.528073,1.69901 7.07158,0 z"/><path id="path9070" stroke-dasharray="none" stroke-miterlimit="4" stroke-width="0" d="m 103.94697,119.1922 14.67123,0 c 1.91328,2e-5 3.33295,0.28319 4.25902,0.84951 0.92601,0.56635 1.38903,1.43882 1.38906,2.6174 -3e-5,0.6735 -0.13779,1.43117 -0.41328,2.27301 -0.21432,0.65819 -0.48601,1.24366 -0.81507,1.75641 -0.32911,0.51278 -0.72325,0.9758 -1.18242,1.38906 -0.45922,0.41329 -0.99112,0.7883 -1.5957,1.12503 -0.60463,0.33675 -1.28959,0.66584 -2.05489,0.98726 l 2.82404,9.78082 -8.60987,0 -1.6531,-7.04862 c -0.0919,-0.42857 -0.16839,-0.79975 -0.2296,-1.11354 -0.0612,-0.31377 -0.0918,-0.60077 -0.0918,-0.86099 -1e-5,-0.16836 0.0191,-0.3329 0.0574,-0.49363 0.0383,-0.16071 0.0804,-0.32525 0.12628,-0.49363 0.15305,-0.44388 0.3903,-0.80358 0.71175,-1.07911 0.32142,-0.2755 0.77296,-0.49745 1.35462,-0.66583 0.53571,-0.15305 0.9796,-0.32525 1.33166,-0.51659 0.35203,-0.19132 0.65051,-0.40944 0.89543,-0.65435 0.24488,-0.24489 0.44387,-0.52806 0.59695,-0.84951 0.15305,-0.32142 0.29846,-0.69643 0.43624,-1.12503 0.0765,-0.24488 0.13391,-0.47065 0.17219,-0.67731 0.0382,-0.20662 0.0574,-0.40943 0.0574,-0.60843 -2e-5,-0.5204 -0.18752,-0.92985 -0.56251,-1.22834 -0.37503,-0.29846 -1.03703,-0.4477 -1.98601,-0.44771 l -2.91588,0 -5.78584,17.86262 -7.691489,0 z"/><path id="path9072" stroke-dasharray="none" stroke-miterlimit="4" stroke-width="0" d="m 123.14126,139.9707 6.70422,-20.7785 12.19159,0 c 1.53062,2e-5 2.83932,0.11864 3.9261,0.35587 1.08673,0.23727 1.97833,0.58549 2.6748,1.04467 0.69642,0.45921 1.20536,1.0179 1.52682,1.67605 0.32141,0.6582 0.48212,1.40056 0.48215,2.22709 -3e-5,0.47452 -0.0498,0.9758 -0.14923,1.50386 -0.0995,0.52809 -0.24111,1.07529 -0.42476,1.64162 l -1.26278,3.85722 c -0.42861,1.30106 -1.02939,2.472 -1.80233,3.51283 -0.77301,1.04085 -1.73348,1.92862 -2.88144,2.66333 -1.14801,0.73471 -2.49498,1.30104 -4.04091,1.69901 -1.54596,0.39797 -3.2909,0.59695 -5.2348,0.59695 z m 11.93903,-2.91588 c 1.54593,1e-5 2.7781,-0.48597 3.6965,-1.45793 0.91837,-0.97196 1.66073,-2.36867 2.22709,-4.19015 l 1.12503,-3.55874 c 0.21426,-0.64286 0.37881,-1.23599 0.49363,-1.77938 0.11477,-0.54336 0.17217,-1.037 0.1722,-1.4809 -3e-5,-0.79592 -0.2258,-1.40817 -0.67731,-1.83677 -0.45157,-0.42857 -1.18245,-0.64286 -2.19265,-0.64287 l -3.3062,0 -4.84449,14.94674 z"/></g><path id="path3809" fill="#4858e3" fill-opacity="1" stroke="#9979ff" stroke-dasharray="none" stroke-linecap="butt" stroke-linejoin="miter" stroke-miterlimit="4" stroke-opacity="1" stroke-width="0" d="m 59.49997,149.31251 3.1e-5,-1 4.000001,4 0.999968,2 z"/></g></switch></svg>