<svg xmlns="http://www.w3.org/2000/svg" xmlns:svg="http://www.w3.org/2000/svg" id="svg5232" width="18" height="18" version="1.1"><metadata id="metadata5237"/><g id="layer1" transform="translate(0,-1034.3622)"><path id="rect4319" fill="#333" fill-opacity="1" stroke="#333" stroke-dasharray="none" stroke-linecap="round" stroke-linejoin="miter" stroke-miterlimit="4" stroke-opacity="1" stroke-width="0" d="m 14,1045.3622 0,3 -3,0 0,1 3,0 0,3 1,0 0,-3 3,0 0,-1 -3,0 0,-3 -1,0 z" opacity=".6"/><g id="layer1-5" fill="#ff2020" fill-opacity="1" stroke="gray" stroke-opacity="1" transform="matrix(1.3369137,0,0,1.3369137,-4.723334,-352.66725)"><path id="rect5754-0-8" fill="#333" fill-opacity="1" stroke="gray" stroke-linecap="round" stroke-linejoin="miter" stroke-miterlimit="4" stroke-opacity="1" stroke-width="0" d="m 8.9401808,1039.3912 c -1.1821779,-1.1822 -2.9115475,-1.1101 -3.9111844,-0.1105 -0.9996368,0.9996 -1.0716924,2.729 0.1104855,3.9112 0.9786623,0.9787 2.3295433,1.1049 3.3366601,0.5524 l 3.33666,3.867 1.414214,-1.4142 -3.7786022,-3.3809 c 0.6044912,-1.014 0.4966182,-2.4202 -0.508233,-3.425 z m -0.7954951,0.7955 c 0.4838807,0.4839 0.5716958,1.4612 -0.088388,2.1213 -0.6600841,0.6601 -1.6374396,0.5723 -2.1213203,0.088 -0.4838807,-0.4839 -0.5495987,-1.4391 0.1104854,-2.0992 0.6600842,-0.6601 1.6153426,-0.5944 2.0992233,-0.1105 z" opacity=".6"/></g></g></svg>