<svg xmlns="http://www.w3.org/2000/svg" xmlns:svg="http://www.w3.org/2000/svg" xmlns:xlink="http://www.w3.org/1999/xlink" id="svg4055" width="96" height="96" version="1.1"><defs id="defs4057"><linearGradient id="linearGradient3875" x1="47.9" x2="47.956" y1="956.262" y2="1001.562" gradientTransform="translate(0.02554273,-988.24213)" gradientUnits="userSpaceOnUse" xlink:href="#linearGradient3681-7"/><linearGradient id="linearGradient3681-7"><stop id="stop3683-4" offset="0" stop-color="#003380" stop-opacity="1"/><stop id="stop3685-0" offset="1" stop-color="#04a" stop-opacity="1"/></linearGradient><linearGradient id="linearGradient3127" x1="52.733" x2="46.233" y1="1004.836" y2="997.614" gradientUnits="userSpaceOnUse" xlink:href="#linearGradient3701-5"/><linearGradient id="linearGradient3701-5"><stop id="stop3703-7" offset="0" stop-color="#acf" stop-opacity="1"/><stop id="stop3705-6" offset="1" stop-color="#fff" stop-opacity="1"/></linearGradient><linearGradient id="linearGradient2920" x1="55.7" x2="43.6" y1="1049.062" y2="1028.462" gradientTransform="matrix(1,0,0,0.88709681,0.02554373,-873.14311)" gradientUnits="userSpaceOnUse" xlink:href="#linearGradient3701-7-7"/><linearGradient id="linearGradient3701-7-7"><stop id="stop3703-1-4" offset="0" stop-color="#acf" stop-opacity="1"/><stop id="stop3705-2-0" offset="1" stop-color="#fff" stop-opacity="1"/></linearGradient><linearGradient id="linearGradient3995" x1="37.1" x2="37" y1="1014.962" y2="1020.562" gradientTransform="translate(0.02554273,-988.24213)" gradientUnits="userSpaceOnUse" xlink:href="#linearGradient3655"/><linearGradient id="linearGradient3655"><stop id="stop3657" offset="0" stop-color="#b7b7c8" stop-opacity="1"/><stop id="stop3659" offset="1" stop-color="#fff" stop-opacity="1"/></linearGradient><linearGradient id="linearGradient3993" x1="36.5" x2="36.7" y1="1048.062" y2="1024.194" gradientTransform="matrix(0.88486823,0,0,0.91495164,5.5105817,-902.0244)" gradientUnits="userSpaceOnUse" xlink:href="#linearGradient3777"/><linearGradient id="linearGradient3777"><stop id="stop3779" offset="0" stop-color="#b7b7c8" stop-opacity="1"/><stop id="stop3781" offset="1" stop-color="#b7b7c8" stop-opacity="0"/></linearGradient><linearGradient id="linearGradient3991" x1="48" x2="48" y1="975.962" y2="1013.262" gradientTransform="translate(0.02554273,-988.24213)" gradientUnits="userSpaceOnUse" xlink:href="#linearGradient3655"/><linearGradient id="linearGradient4030"><stop id="stop4032" offset="0" stop-color="#b7b7c8" stop-opacity="1"/><stop id="stop4034" offset="1" stop-color="#fff" stop-opacity="1"/></linearGradient><linearGradient id="linearGradient3989" x1="31.4" x2="31.7" y1="1047.562" y2="1010.562" gradientTransform="translate(0,-0.40001738)" gradientUnits="userSpaceOnUse" xlink:href="#linearGradient3655"/><linearGradient id="linearGradient4037"><stop id="stop4039" offset="0" stop-color="#b7b7c8" stop-opacity="1"/><stop id="stop4041" offset="1" stop-color="#fff" stop-opacity="1"/></linearGradient><linearGradient id="linearGradient4053" x1="31.4" x2="31.7" y1="1047.562" y2="1010.562" gradientTransform="translate(0.02554273,-988.64213)" gradientUnits="userSpaceOnUse" xlink:href="#linearGradient3655"/></defs><metadata id="metadata4060"/><g id="layer1" transform="translate(0,32)"><path id="path3710" fill="url(#linearGradient4053)" fill-opacity="1" stroke="#b7b7c8" stroke-opacity="1" d="m 48.338043,-18.085854 -36.3125,32.21875 0,43 c 0,4.3 3.177657,6.5068 7,6.5938 4.276235,0.097 52.201568,-0.135 58,0 4.3,0.1 7,-2.6063 7,-6.4063 l 0,-43.1875 -35.6875,-32.21875 z m -0.4125,19.3187497 c 4.473506,0 10.1,5.72024 10.1,10.1937503 0,4.47355 -5.526494,9.99375 -10,9.99375 -4.473506,0 -10,-5.7202 -10,-10.19375 0,-4.4735103 5.426494,-9.9937503 9.9,-9.9937503 z m -9.9,27.1812003 20,0.094 0,31.4062 -20,-0.094 0,-31.4063 z" display="inline"/><path id="path3758" fill="url(#linearGradient3991)" fill-opacity="1" stroke="none" d="m 48.431793,-12.992104 -32.21875,28.5 0,41.7188 c 0,1.5 1.41875,2.7812 2.71875,2.7812 1.3,0 56.69375,-0.2812 58.09375,-0.2812 1.4,0 2.6875,-1.2938 2.6875,-2.5938 0,-1.3 -0.0937,-41.8125 -0.0937,-41.8125 l -31.1875,-28.3125 z m -0.40625,16.2187497 c 4.473506,0 8.09375,3.62024 8.09375,8.0937503 0,4.4735 -3.620244,8.0937 -8.09375,8.0937 -4.473506,0 -8.09375,-3.6202 -8.09375,-8.0937 0,-4.4735103 3.620244,-8.0937503 8.09375,-8.0937503 z m -8.09375,27.1874503 16.28125,0 0,27.5 -16.28125,0 0,-27.5 z" display="inline"/><path id="rect3720" fill="url(#linearGradient3993)" fill-opacity="1" stroke="none" d="m 36.150543,25.507896 0,34.4375 23.8125,0 0,-34.4375 -23.8125,0 z m 3.78125,4.9062 16.28125,0 0,27.5 -16.28125,0 0,-27.5 z" display="inline"/><path id="rect3791" fill="url(#linearGradient3995)" fill-opacity="1" stroke="none" d="m 36.025543,26.507896 0,6.7188 3.90625,0 0,-2.8126 16.28125,0 0,2.8126 4,0 0,-6.7188 -24.1875,0 z" display="inline"/><path id="rect3815" fill="#04a" fill-opacity="1" stroke="none" d="m 38.025543,28.507896 0,31.4062 20.09375,0 0,-31.4062 -20.09375,0 z m 1.9375,1.9062 16.3125,0 0,27.5 -16.3125,0 0,-27.5 z" display="inline"/><rect id="rect3698-9" width="16.3" height="27.5" x="39.926" y="30.42" fill="url(#linearGradient2920)" fill-opacity="1" stroke="none" display="inline" opacity=".75"/><path id="path3922" fill="#b7b7c8" fill-opacity="1" stroke="none" d="m 48.025543,-0.67960427 c -6.655031,0 -12.0625,5.40746997 -12.0625,12.06250027 0,6.655 5.407469,12.0312 12.0625,12.0312 6.655031,0 12.0625,-5.3762 12.0625,-12.0312 0,-6.6550303 -5.407469,-12.06250027 -12.0625,-12.06250027 z m 0,3.90624997 c 4.473506,0 8.09375,3.62024 8.09375,8.0937503 0,4.4735 -3.620244,8.0937 -8.09375,8.0937 -4.473506,0 -8.09375,-3.6202 -8.09375,-8.0937 0,-4.4735103 3.620244,-8.0937503 8.09375,-8.0937503 z" display="inline"/><path id="path3921" fill="#04a" fill-opacity="1" stroke="none" d="m 47.963043,1.2266457 c -5.550463,0 -10.03125,4.51204 -10.03125,10.0625003 0,5.55045 4.480787,10.06255 10.03125,10.06255 5.550463,0 10.0625,-4.5121 10.0625,-10.06255 0,-5.5504603 -4.512037,-10.0625003 -10.0625,-10.0625003 z m 0.0625,2 c 4.473506,0 8.09375,3.62024 8.09375,8.0937503 0,4.4735 -3.620244,8.0937 -8.09375,8.0937 -4.473506,0 -8.09375,-3.6202 -8.09375,-8.0937 0,-4.4735103 3.620244,-8.0937503 8.09375,-8.0937503 z" display="inline"/><path id="path3748-1" fill="url(#linearGradient3127)" fill-opacity="1" stroke="none" d="m 54.900002,1000.2622 a 6.5,6.5 0 1 1 -13,0 6.5,6.5 0 1 1 13,0 z" display="inline" opacity=".75" transform="matrix(1.2461536,0,0,1.2461536,-12.288293,-1235.1602)"/><path id="path2895" fill="url(#linearGradient3875)" fill-opacity="1" stroke="none" d="m 47.488043,-31.879424 c -1.08224,0.10991 -2.046135,0.59286 -2.8125,1.28125 -0.09901,0.0889 -0.220867,0.15351 -0.3125,0.25 L 1.8005427,5.5268657 l 0.0625,0.062 c -1.02500197,0.9156 -1.68749997,2.2361 -1.68749997,3.7187 0,2.7614303 2.23857697,5.0000303 4.99999997,5.0000303 1.484597,0 2.834256,-0.6601 3.75,-1.6875 l 39.0000003,-34.50002 c 0.02143,2.7e-4 0.04101,0 0.0625,0 0.140354,0 0.268822,-0.0199 0.40625,-0.0312 l 38.59375,34.62502 0.0438,0.056 c 0.91582,1.1562 2.36672,1.7562 3.95625,1.7562 2.76142,0 5,-2.2385 5,-4.9999303 0,-1.4359 -0.62444,-2.7131 -1.59375,-3.625 l -42.75,-36.1875397 c -0.913456,-0.98756 -2.204855,-1.59355 -3.6563,-1.59355 -0.172589,0 -0.331915,-0.0171 -0.5,0 z" display="inline"/></g></svg>