<svg xmlns="http://www.w3.org/2000/svg" xmlns:osb="http://www.openswatchbook.org/uri/2009/osb" xmlns:svg="http://www.w3.org/2000/svg" xmlns:xlink="http://www.w3.org/1999/xlink" id="svg2" width="512" height="512" version="1.1"><defs id="defs4"><linearGradient id="linearGradient4096"><stop id="stop4098" offset="0" stop-color="#575655" stop-opacity="1"/><stop id="stop4100" offset=".731" stop-color="#575655" stop-opacity=".498"/><stop id="stop4102" offset="1" stop-color="#575655" stop-opacity="0"/></linearGradient><linearGradient id="linearGradient3986"><stop id="stop3988" offset="0" stop-color="#c5c5c5" stop-opacity="1"/><stop id="stop3990" offset=".094" stop-color="#c5c5c5" stop-opacity=".937"/><stop id="stop3992" offset=".509" stop-color="#c5c5c5" stop-opacity=".875"/><stop id="stop3994" offset=".509" stop-color="#c5c5c5" stop-opacity=".749"/><stop id="stop3996" offset=".934" stop-color="#c5c5c5" stop-opacity=".498"/><stop id="stop3998" offset="1" stop-color="#c5c5c5" stop-opacity="0"/></linearGradient><linearGradient id="linearGradient5772"><stop id="stop5774" offset="0" stop-color="#c8c8c8" stop-opacity="1"/><stop id="stop5776" offset="1" stop-color="#c8c8c8" stop-opacity="0"/></linearGradient><linearGradient id="linearGradient5552"><stop id="stop5554" offset="0" stop-color="#fff" stop-opacity="1"/><stop id="stop5556" offset="1" stop-color="#fff" stop-opacity="0"/></linearGradient><linearGradient id="linearGradient5469"><stop id="stop5471" offset="0" stop-color="#575655" stop-opacity="1"/><stop id="stop4094" offset=".5" stop-color="#575655" stop-opacity=".498"/><stop id="stop5473" offset="1" stop-color="#575655" stop-opacity="0"/></linearGradient><linearGradient id="linearGradient5423"><stop id="stop5425" offset="0" stop-color="#575655" stop-opacity="1"/><stop id="stop5427" offset="1" stop-color="#575655" stop-opacity="0"/></linearGradient><linearGradient id="linearGradient5415"><stop id="stop5417" offset="0" stop-color="#c5c5c5" stop-opacity="1"/><stop id="stop5479" offset=".127" stop-color="#c5c5c5" stop-opacity=".937"/><stop id="stop5477" offset=".225" stop-color="#c5c5c5" stop-opacity=".875"/><stop id="stop5441" offset=".77" stop-color="#c5c5c5" stop-opacity=".749"/><stop id="stop5439" offset=".946" stop-color="#c5c5c5" stop-opacity=".498"/><stop id="stop5419" offset="1" stop-color="#c5c5c5" stop-opacity="0"/></linearGradient><linearGradient id="linearGradient5409" osb:paint="solid"><stop id="stop5411" offset="0" stop-color="#ccc" stop-opacity="1"/></linearGradient><linearGradient id="linearGradient4539"><stop id="stop4541" offset="0" stop-color="#fdc366" stop-opacity="1"/><stop id="stop4543" offset="1" stop-color="#000" stop-opacity="0"/></linearGradient><linearGradient id="linearGradient4511"><stop id="stop4513" offset="0" stop-color="#fcd283" stop-opacity="1"/><stop id="stop4515" offset="1" stop-color="#fdc366" stop-opacity=".353"/></linearGradient><linearGradient id="linearGradient4453"><stop id="stop4455" offset="0" stop-color="#fdc366" stop-opacity="1"/><stop id="stop4457" offset="1" stop-color="#fdc366" stop-opacity="0"/></linearGradient><linearGradient id="linearGradient4545" x1="0" x2="514.286" y1="762.362" y2="762.362" gradientUnits="userSpaceOnUse" xlink:href="#linearGradient4539"/><linearGradient id="linearGradient3897" x1="0" x2="514.286" y1="762.362" y2="762.362" gradientUnits="userSpaceOnUse" xlink:href="#linearGradient4539"/><linearGradient id="linearGradient3915" x1="0" x2="514.286" y1="762.362" y2="762.362" gradientUnits="userSpaceOnUse" xlink:href="#linearGradient4539"/><linearGradient id="linearGradient5421" x1="-6.239" x2="11.287" y1="1032.329" y2="1032.419" gradientTransform="matrix(14.56498,5.6669614e-8,2.9201738e-8,14.436576,86.865577,-14160.133)" gradientUnits="userSpaceOnUse" spreadMethod="reflect" xlink:href="#linearGradient5415"/><filter id="filter5744" width="1.586" height="1.351" x="-.293" y="-.175" color-interpolation-filters="sRGB"><feGaussianBlur id="feGaussianBlur5746" stdDeviation=".322"/></filter><filter id="filter5762" color-interpolation-filters="sRGB"><feGaussianBlur id="feGaussianBlur5764" stdDeviation=".424"/></filter><linearGradient id="linearGradient4058" x1="44.284" x2="43.011" y1="21.404" y2="22.527" gradientUnits="userSpaceOnUse" spreadMethod="reflect" xlink:href="#linearGradient5552"/><linearGradient id="linearGradient4077" x1="44.284" x2="43.011" y1="21.404" y2="22.527" gradientUnits="userSpaceOnUse" spreadMethod="reflect" xlink:href="#linearGradient5552"/><linearGradient id="linearGradient4080" x1="17.539" x2="21.089" y1="1025.111" y2="1025.145" gradientTransform="matrix(14.185392,-3.6854917e-8,0,13.683179,96.939276,-13382.243)" gradientUnits="userSpaceOnUse" spreadMethod="reflect" xlink:href="#linearGradient4096"/><linearGradient id="linearGradient4083" x1="16.167" x2="21.089" y1="1025.226" y2="1025.145" gradientTransform="matrix(13.568298,4.4223694e-8,3.648393e-8,14.861217,109.32995,-14594.532)" gradientUnits="userSpaceOnUse" spreadMethod="reflect" xlink:href="#linearGradient5469"/><linearGradient id="linearGradient4104" x1=".53" x2="6.983" y1="13.827" y2="12.514" gradientUnits="userSpaceOnUse" spreadMethod="reflect" xlink:href="#linearGradient5772"/></defs><metadata id="metadata7"/><g id="layer1" transform="translate(0,-540.356)"><rect id="rect5491" width="494.102" height="360.114" x="10.65" y="648.416" fill="#fff" fill-opacity="1" fill-rule="nonzero" stroke="#000" stroke-dasharray="none" stroke-linecap="round" stroke-linejoin="round" stroke-miterlimit="4" stroke-opacity="1" stroke-width="0" ry="45.522"/><rect id="rect3980" width="494.736" height="360.636" x="6.156" y="651.144" fill="url(#linearGradient5421)" fill-opacity="1" fill-rule="nonzero" stroke="#7d7d7d" stroke-dasharray="none" stroke-linecap="round" stroke-linejoin="round" stroke-miterlimit="4" stroke-opacity="1" stroke-width="1.445" ry="44.911" transform="matrix(0.99998064,-0.00622312,0.00584695,0.99998291,0,0)"/><rect id="rect5788" width="496.8" height="46.563" x="6.774" y="650.32" fill="#fff" fill-opacity="1" fill-rule="nonzero" stroke="#000" stroke-dasharray="none" stroke-linecap="round" stroke-linejoin="round" stroke-miterlimit="4" stroke-opacity="1" stroke-width="0" ry="23.282" transform="matrix(0.99999899,-0.00142325,0.00358541,0.99999357,0,0)"/><rect id="rect5318" width="496.8" height="46.563" x="6.774" y="650.32" fill="#4b4b4b" fill-opacity=".508" fill-rule="nonzero" stroke="#000" stroke-dasharray="none" stroke-linecap="round" stroke-linejoin="round" stroke-miterlimit="4" stroke-opacity="1" stroke-width="0" ry="23.282" transform="matrix(0.99999899,-0.00142325,0.00358541,0.99999357,0,0)"/><rect id="rect5487" width="113.678" height="95.65" x="346.549" y="589.232" fill="#fff" fill-opacity="1" fill-rule="nonzero" stroke="#000" stroke-dasharray="none" stroke-linecap="round" stroke-linejoin="round" stroke-miterlimit="4" stroke-opacity="1" stroke-width="0" ry="39.78"/><rect id="rect3929" width="110.424" height="93.513" x="342.854" y="592.729" fill="url(#linearGradient4083)" fill-opacity="1" fill-rule="nonzero" stroke="#7d7d7d" stroke-dasharray="none" stroke-linecap="round" stroke-linejoin="round" stroke-miterlimit="4" stroke-opacity="1" stroke-width="1.42" ry="32.447" transform="matrix(0.99997843,-0.00656784,0.00554007,0.99998465,0,0)"/><rect id="rect3027" width="115.446" height="86.1" x="341.084" y="601.132" fill="url(#linearGradient4080)" fill-opacity="1" fill-rule="nonzero" stroke="#7d7d7d" stroke-dasharray="none" stroke-linecap="round" stroke-linejoin="round" stroke-miterlimit="4" stroke-opacity="1" stroke-width="1.393" ry="29.875" transform="matrix(0.99998327,-0.00578411,0.00629072,0.99998021,0,0)"/><g id="g4050" transform="matrix(14.612259,0,0,14.612259,-8.3621425,-14301.139)"><path id="path3029" fill="#fff" fill-opacity="1" fill-rule="nonzero" stroke="#000" stroke-dasharray="none" stroke-linecap="round" stroke-linejoin="round" stroke-miterlimit="4" stroke-opacity="1" stroke-width=".921" d="m -480.83261,461.92801 a 14.849242,13.435029 0 1 1 -29.69849,0 14.849242,13.435029 0 1 1 29.69849,0 z" filter="url(#filter5762)" transform="matrix(0.33986436,-0.00214694,0.00205015,0.35591021,185.63301,872.14622)"/><path id="path3142" fill="#000" fill-opacity="1" fill-rule="nonzero" stroke="#000" stroke-dasharray="none" stroke-linecap="round" stroke-linejoin="round" stroke-miterlimit="4" stroke-opacity="1" stroke-width=".921" d="m -480.83261,461.92801 a 14.849242,13.435029 0 1 1 -29.69849,0 14.849242,13.435029 0 1 1 29.69849,0 z" transform="matrix(0.33986436,-0.00214694,0.00205015,0.35591021,185.63301,872.14622)"/><path id="path3947" fill="#6e6e6e" fill-opacity="1" fill-rule="nonzero" stroke="#000" stroke-dasharray="none" stroke-linecap="round" stroke-linejoin="round" stroke-miterlimit="4" stroke-opacity="1" stroke-width=".652" d="m -480.83261,461.92801 a 14.849242,13.435029 0 1 1 -29.69849,0 14.849242,13.435029 0 1 1 29.69849,0 z" transform="matrix(0.33945144,-0.00231702,0.00204765,0.38410622,185.42948,857.54037)"/><path id="path3945" fill="#ccc" fill-opacity="1" fill-rule="nonzero" stroke="#000" stroke-dasharray="none" stroke-linecap="round" stroke-linejoin="round" stroke-miterlimit="4" stroke-opacity="1" stroke-width="0" d="m -480.83261,461.92801 a 14.849242,13.435029 0 1 1 -29.69849,0 14.849242,13.435029 0 1 1 29.69849,0 z" transform="matrix(0.33986436,-0.00214694,0.00205015,0.35591021,185.63301,872.14622)"/><path id="path3835" fill="#465adf" fill-opacity="1" fill-rule="nonzero" stroke="#000" stroke-dasharray="none" stroke-linecap="round" stroke-linejoin="round" stroke-miterlimit="4" stroke-opacity="1" stroke-width="1.902" d="m -485.78235,461.92801 a 10.253048,8.485281 0 1 1 -20.5061,0 10.253048,8.485281 0 1 1 20.5061,0 z" transform="matrix(0.41875458,-0.00260657,0.00279606,0.4782976,224.51508,815.37445)"/><path id="path5548" fill="url(#linearGradient4058)" fill-opacity="1" fill-rule="nonzero" stroke="#000" stroke-dasharray="none" stroke-linecap="round" stroke-linejoin="round" stroke-miterlimit="4" stroke-opacity="1" stroke-width="0" d="m 44.9375,19.03125 a 2.625,4.96875 0 0 1 -1.255246,4.238647 L 42.3125,19.03125 z" filter="url(#filter5744)" opacity=".58" transform="matrix(-0.89506966,-1.2246085,0.79478561,-0.4124254,40.572454,1097.428)"/></g><g id="g4069" transform="matrix(14.612259,0,0,14.612259,-7.0705893,-14294.682)"><path id="path5770" fill="url(#linearGradient4104)" fill-opacity="1" fill-rule="nonzero" stroke="#505050" stroke-dasharray="none" stroke-linecap="round" stroke-linejoin="round" stroke-miterlimit="4" stroke-opacity="1" stroke-width="1.09" d="m 11.22532,8.2460585 a 4.8171649,4.5961943 0 1 1 -9.6343295,0 4.8171649,4.5961943 0 1 1 9.6343295,0 z" transform="matrix(0.4916611,0,0,0.23513798,3.1526098,1022.422)"/><path id="path5766" fill="#ccc" fill-opacity="1" fill-rule="nonzero" stroke="#7d7d7d" stroke-dasharray="none" stroke-linecap="round" stroke-linejoin="round" stroke-miterlimit="4" stroke-opacity="1" stroke-width="0" d="m 11.22532,8.2460585 a 4.8171649,4.5961943 0 1 1 -9.6343295,0 4.8171649,4.5961943 0 1 1 9.6343295,0 z" transform="matrix(0.4471732,0,0,0.24444378,3.4805562,1022.1315)"/></g><g id="g4073" transform="matrix(14.612259,0,0,14.612259,-8.3621425,-14302.431)"><rect id="rect5780" width="4.829" height="3.126" x="21.912" y="1028.476" fill="#4b4b4b" fill-opacity="1" fill-rule="nonzero" stroke="#000" stroke-dasharray="none" stroke-linecap="round" stroke-linejoin="round" stroke-miterlimit="4" stroke-opacity="1" stroke-width=".352" ry="1.391"/><path id="path5784" fill="url(#linearGradient4077)" fill-opacity="1" fill-rule="nonzero" stroke="#000" stroke-dasharray="none" stroke-linecap="round" stroke-linejoin="round" stroke-miterlimit="4" stroke-opacity="1" stroke-width="0" d="m 44.9375,19.03125 a 2.625,4.96875 0 0 1 -1.255246,4.238647 L 42.3125,19.03125 z" filter="url(#filter5744)" opacity=".75" transform="matrix(-0.58808202,-0.76430448,0.44418451,-0.21107373,40.860624,1066.996)"/></g></g></svg>